# xmcd
#
# Track frame offsets: 
#        150
#        10067
#        21127
#        36157
#        47355
#        62407
#        77417
#        95770
#        109507
#        123997
#
# Disc length: 1845 seconds
#
# Revision: 2
# Processed by: cddbd v1.4PL0 Copyright (c) Steve Scherf et al.
# Submitted via: ExactAudioCopy v0.90b3
#
DISCID=6a07330a
DTITLE=Barbara Mandrell - Key's In The Mailbox
DYEAR=1900
DGENRE=Country
TTITLE0=Key's In The Mailbox
TTITLE1=Tall Drink Of Water
TTITLE2=You're All I've Got To Lose
TTITLE3=Before I'm Ever Over You
TTITLE4=When A Man Loves A Woman
TTITLE5=This Rock
TTITLE6=Try Gettin' Over You
TTITLE7=The Way I Feel Right Now
TTITLE8=I Love You Because
TTITLE9=Road To Your Heart
EXTD=
EXTT0=
EXTT1=
EXTT2=
EXTT3=
EXTT4=
EXTT5=
EXTT6=
EXTT7=
EXTT8=
EXTT9=
PLAYORDER=
